<mxfile host="65bd71144e">
    <diagram name="Page-1" id="3RRVVC_d55R3TYuRdFfZ">
        <mxGraphModel dx="896" dy="604" grid="1" gridSize="10" guides="1" tooltips="1" connect="1" arrows="1" fold="1" page="1" pageScale="1" pageWidth="850" pageHeight="1100" math="0" shadow="0">
            <root>
                <mxCell id="0"/>
                <mxCell id="1" parent="0"/>
                <mxCell id="Kk4CPA0KFlUxsL5uEd__-1" value="&lt;font style=&quot;font-size: 14px;&quot;&gt;Entrepot&lt;/font&gt;" style="swimlane;fontStyle=0;childLayout=stackLayout;horizontal=1;startSize=30;horizontalStack=0;resizeParent=1;resizeParentMax=0;resizeLast=0;collapsible=1;marginBottom=0;whiteSpace=wrap;html=1;fontFamily=FiraCode Nerd Font Propo;" parent="1" vertex="1">
                    <mxGeometry x="355" y="610" width="140" height="90" as="geometry"/>
                </mxCell>
                <mxCell id="Kk4CPA0KFlUxsL5uEd__-2" value="Numéro d'entepot" style="text;strokeColor=none;fillColor=none;align=left;verticalAlign=middle;spacingLeft=4;spacingRight=4;overflow=hidden;points=[[0,0.5],[1,0.5]];portConstraint=eastwest;rotatable=0;whiteSpace=wrap;html=1;fontFamily=FiraCode Nerd Font Propo;" parent="Kk4CPA0KFlUxsL5uEd__-1" vertex="1">
                    <mxGeometry y="30" width="140" height="30" as="geometry"/>
                </mxCell>
                <mxCell id="Kk4CPA0KFlUxsL5uEd__-3" value="Nom" style="text;strokeColor=none;fillColor=none;align=left;verticalAlign=middle;spacingLeft=4;spacingRight=4;overflow=hidden;points=[[0,0.5],[1,0.5]];portConstraint=eastwest;rotatable=0;whiteSpace=wrap;html=1;fontFamily=FiraCode Nerd Font Propo;" parent="Kk4CPA0KFlUxsL5uEd__-1" vertex="1">
                    <mxGeometry y="60" width="140" height="30" as="geometry"/>
                </mxCell>
                <mxCell id="Kk4CPA0KFlUxsL5uEd__-5" value="&lt;font style=&quot;font-size: 14px;&quot;&gt;Editeur&lt;/font&gt;" style="swimlane;fontStyle=0;childLayout=stackLayout;horizontal=1;startSize=30;horizontalStack=0;resizeParent=1;resizeParentMax=0;resizeLast=0;collapsible=1;marginBottom=0;whiteSpace=wrap;html=1;fontFamily=FiraCode Nerd Font Propo;" parent="1" vertex="1">
                    <mxGeometry x="615" y="40" width="140" height="90" as="geometry"/>
                </mxCell>
                <mxCell id="Kk4CPA0KFlUxsL5uEd__-6" value="Numéro d'éditeur" style="text;strokeColor=none;fillColor=none;align=left;verticalAlign=middle;spacingLeft=4;spacingRight=4;overflow=hidden;points=[[0,0.5],[1,0.5]];portConstraint=eastwest;rotatable=0;whiteSpace=wrap;html=1;fontFamily=FiraCode Nerd Font Propo;" parent="Kk4CPA0KFlUxsL5uEd__-5" vertex="1">
                    <mxGeometry y="30" width="140" height="30" as="geometry"/>
                </mxCell>
                <mxCell id="Kk4CPA0KFlUxsL5uEd__-7" value="Nom" style="text;strokeColor=none;fillColor=none;align=left;verticalAlign=middle;spacingLeft=4;spacingRight=4;overflow=hidden;points=[[0,0.5],[1,0.5]];portConstraint=eastwest;rotatable=0;whiteSpace=wrap;html=1;fontFamily=FiraCode Nerd Font Propo;" parent="Kk4CPA0KFlUxsL5uEd__-5" vertex="1">
                    <mxGeometry y="60" width="140" height="30" as="geometry"/>
                </mxCell>
                <mxCell id="Kk4CPA0KFlUxsL5uEd__-9" value="&lt;font style=&quot;font-size: 14px;&quot;&gt;Livre&lt;/font&gt;" style="swimlane;fontStyle=0;childLayout=stackLayout;horizontal=1;startSize=30;horizontalStack=0;resizeParent=1;resizeParentMax=0;resizeLast=0;collapsible=1;marginBottom=0;whiteSpace=wrap;html=1;fontFamily=FiraCode Nerd Font Propo;" parent="1" vertex="1">
                    <mxGeometry x="355" y="320" width="140" height="90" as="geometry"/>
                </mxCell>
                <mxCell id="Kk4CPA0KFlUxsL5uEd__-10" value="&lt;u&gt;ISBN&lt;/u&gt;" style="text;strokeColor=none;fillColor=none;align=left;verticalAlign=middle;spacingLeft=4;spacingRight=4;overflow=hidden;points=[[0,0.5],[1,0.5]];portConstraint=eastwest;rotatable=0;whiteSpace=wrap;html=1;fontFamily=FiraCode Nerd Font Propo;" parent="Kk4CPA0KFlUxsL5uEd__-9" vertex="1">
                    <mxGeometry y="30" width="140" height="30" as="geometry"/>
                </mxCell>
                <mxCell id="Kk4CPA0KFlUxsL5uEd__-11" value="Titre" style="text;strokeColor=none;fillColor=none;align=left;verticalAlign=middle;spacingLeft=4;spacingRight=4;overflow=hidden;points=[[0,0.5],[1,0.5]];portConstraint=eastwest;rotatable=0;whiteSpace=wrap;html=1;fontFamily=FiraCode Nerd Font Propo;" parent="Kk4CPA0KFlUxsL5uEd__-9" vertex="1">
                    <mxGeometry y="60" width="140" height="30" as="geometry"/>
                </mxCell>
                <mxCell id="Kk4CPA0KFlUxsL5uEd__-13" value="&lt;font style=&quot;font-size: 14px;&quot;&gt;Auteur&lt;/font&gt;" style="swimlane;fontStyle=0;childLayout=stackLayout;horizontal=1;startSize=30;horizontalStack=0;resizeParent=1;resizeParentMax=0;resizeLast=0;collapsible=1;marginBottom=0;whiteSpace=wrap;html=1;fontFamily=FiraCode Nerd Font Propo;" parent="1" vertex="1">
                    <mxGeometry x="95" y="40" width="140" height="90" as="geometry"/>
                </mxCell>
                <mxCell id="Kk4CPA0KFlUxsL5uEd__-14" value="&lt;u&gt;Numéro d'auteur&lt;/u&gt;" style="text;strokeColor=none;fillColor=none;align=left;verticalAlign=middle;spacingLeft=4;spacingRight=4;overflow=hidden;points=[[0,0.5],[1,0.5]];portConstraint=eastwest;rotatable=0;whiteSpace=wrap;html=1;fontFamily=FiraCode Nerd Font Propo;" parent="Kk4CPA0KFlUxsL5uEd__-13" vertex="1">
                    <mxGeometry y="30" width="140" height="30" as="geometry"/>
                </mxCell>
                <mxCell id="Kk4CPA0KFlUxsL5uEd__-15" value="Nom" style="text;strokeColor=none;fillColor=none;align=left;verticalAlign=middle;spacingLeft=4;spacingRight=4;overflow=hidden;points=[[0,0.5],[1,0.5]];portConstraint=eastwest;rotatable=0;whiteSpace=wrap;html=1;fontFamily=FiraCode Nerd Font Propo;" parent="Kk4CPA0KFlUxsL5uEd__-13" vertex="1">
                    <mxGeometry y="60" width="140" height="30" as="geometry"/>
                </mxCell>
                <mxCell id="Kk4CPA0KFlUxsL5uEd__-23" style="edgeStyle=orthogonalEdgeStyle;rounded=0;orthogonalLoop=1;jettySize=auto;html=1;exitX=0.5;exitY=1;exitDx=0;exitDy=0;entryX=0;entryY=0.5;entryDx=0;entryDy=0;shape=link;fontFamily=FiraCode Nerd Font Propo;" parent="1" source="Kk4CPA0KFlUxsL5uEd__-17" target="Kk4CPA0KFlUxsL5uEd__-11" edge="1">
                    <mxGeometry relative="1" as="geometry"/>
                </mxCell>
                <mxCell id="Kk4CPA0KFlUxsL5uEd__-17" value="&lt;font style=&quot;font-size: 14px;&quot;&gt;Ecrit&lt;/font&gt;" style="ellipse;whiteSpace=wrap;html=1;fontFamily=FiraCode Nerd Font Propo;" parent="1" vertex="1">
                    <mxGeometry x="235" y="210" width="120" height="80" as="geometry"/>
                </mxCell>
                <mxCell id="Kk4CPA0KFlUxsL5uEd__-22" style="edgeStyle=orthogonalEdgeStyle;rounded=0;orthogonalLoop=1;jettySize=auto;html=1;exitX=0.5;exitY=1;exitDx=0;exitDy=0;entryX=1;entryY=0.5;entryDx=0;entryDy=0;shape=link;fontFamily=FiraCode Nerd Font Propo;" parent="1" source="Kk4CPA0KFlUxsL5uEd__-18" target="Kk4CPA0KFlUxsL5uEd__-11" edge="1">
                    <mxGeometry relative="1" as="geometry"/>
                </mxCell>
                <mxCell id="Kk4CPA0KFlUxsL5uEd__-18" value="&lt;font style=&quot;&quot;&gt;&lt;span style=&quot;font-size: 14px;&quot;&gt;Editer&lt;/span&gt;&lt;br&gt;&lt;font style=&quot;font-size: 12px;&quot;&gt;Année&lt;/font&gt;&lt;br&gt;&lt;/font&gt;" style="ellipse;whiteSpace=wrap;html=1;fontFamily=FiraCode Nerd Font Propo;" parent="1" vertex="1">
                    <mxGeometry x="495" y="200" width="120" height="80" as="geometry"/>
                </mxCell>
                <mxCell id="Kk4CPA0KFlUxsL5uEd__-24" style="edgeStyle=orthogonalEdgeStyle;rounded=0;orthogonalLoop=1;jettySize=auto;html=1;exitX=0.5;exitY=0;exitDx=0;exitDy=0;shape=link;fontFamily=FiraCode Nerd Font Propo;" parent="1" source="Kk4CPA0KFlUxsL5uEd__-19" target="Kk4CPA0KFlUxsL5uEd__-9" edge="1">
                    <mxGeometry relative="1" as="geometry">
                        <mxPoint x="425" y="439.01" as="targetPoint"/>
                    </mxGeometry>
                </mxCell>
                <mxCell id="Kk4CPA0KFlUxsL5uEd__-25" style="edgeStyle=orthogonalEdgeStyle;rounded=0;orthogonalLoop=1;jettySize=auto;html=1;exitX=0.5;exitY=1;exitDx=0;exitDy=0;entryX=0.5;entryY=0;entryDx=0;entryDy=0;shape=link;fontFamily=FiraCode Nerd Font Propo;" parent="1" source="Kk4CPA0KFlUxsL5uEd__-19" target="Kk4CPA0KFlUxsL5uEd__-1" edge="1">
                    <mxGeometry relative="1" as="geometry"/>
                </mxCell>
                <mxCell id="Kk4CPA0KFlUxsL5uEd__-19" value="&lt;font style=&quot;font-size: 14px;&quot;&gt;Stocké&lt;/font&gt;" style="ellipse;whiteSpace=wrap;html=1;fontFamily=FiraCode Nerd Font Propo;" parent="1" vertex="1">
                    <mxGeometry x="365" y="470" width="120" height="80" as="geometry"/>
                </mxCell>
                <mxCell id="Kk4CPA0KFlUxsL5uEd__-20" style="edgeStyle=orthogonalEdgeStyle;rounded=0;orthogonalLoop=1;jettySize=auto;html=1;exitX=1;exitY=0.5;exitDx=0;exitDy=0;entryX=0.5;entryY=0;entryDx=0;entryDy=0;shape=link;fontFamily=FiraCode Nerd Font Propo;" parent="1" source="Kk4CPA0KFlUxsL5uEd__-15" target="Kk4CPA0KFlUxsL5uEd__-17" edge="1">
                    <mxGeometry relative="1" as="geometry"/>
                </mxCell>
                <mxCell id="Kk4CPA0KFlUxsL5uEd__-21" style="edgeStyle=orthogonalEdgeStyle;rounded=0;orthogonalLoop=1;jettySize=auto;html=1;exitX=0;exitY=0.5;exitDx=0;exitDy=0;entryX=0.5;entryY=0;entryDx=0;entryDy=0;shape=link;fontFamily=FiraCode Nerd Font Propo;" parent="1" source="Kk4CPA0KFlUxsL5uEd__-7" target="Kk4CPA0KFlUxsL5uEd__-18" edge="1">
                    <mxGeometry relative="1" as="geometry"/>
                </mxCell>
            </root>
        </mxGraphModel>
    </diagram>
</mxfile>